<svg xmlns="http://www.w3.org/2000/svg" width="256" height="256" viewBox="0 0 256 256" shape-rendering="crispEdges">
  <defs>
    <style>
      .outline{fill:#060807}
      .shadow{fill:#050605;opacity:.38}
      .bark0{fill:#2b1a10}
      .bark1{fill:#674528}
      .bark2{fill:#a46e3f}
      .leaf0{fill:#102414}
      .leaf1{fill:#28582e}
      .leaf2{fill:#4f873f}
      .leaf3{fill:#8ab45d}
      .swamp0{fill:#101a12}
      .swamp1{fill:#263d24}
      .swamp2{fill:#59703d}
      .sand0{fill:#5a3c21}
      .sand1{fill:#a9793f}
      .sand2{fill:#dec06f}
      .snow0{fill:#39576c}
      .snow1{fill:#cfe7ed}
      .snow2{fill:#f9ffff}
      .metal0{fill:#1d2322}
      .metal1{fill:#586462}
      .metal2{fill:#bcc7c0}
      .rust0{fill:#301a13}
      .rust1{fill:#72402a}
      .rust2{fill:#b46436}
      .coal{fill:#151515}
      .warn{fill:#d5b237}
      .danger{fill:#b63a2f}
      .glow{fill:#70e7ee}
      .glow2{fill:#c9fbff}
      .lineDark{fill:none;stroke:#060807;stroke-width:2;stroke-linecap:square;stroke-linejoin:miter}
      .lineMetal{fill:none;stroke:#aab7b1;stroke-width:1;stroke-linecap:square;stroke-linejoin:miter}
      .lineWarn{fill:none;stroke:#d5b237;stroke-width:1;stroke-linecap:square}
      .lineGlow{fill:none;stroke:#70e7ee;stroke-width:1;stroke-linecap:square}
      .linePalm{fill:none;stroke:#4f873f;stroke-width:2;stroke-linecap:square;stroke-linejoin:miter}
      .linePalmLight{fill:none;stroke:#8ab45d;stroke-width:1;stroke-linecap:square;stroke-linejoin:miter}
      .palmOutline{fill:#09150c}
      .palmMid{fill:#315e2c}
      .palmLight{fill:#78a94a}
    </style>
  </defs>

  <g id="rock_small_cracked" transform="translate(0 0)">
    <rect class="shadow" x="6" y="25" width="20" height="2"/>
    <polygon class="outline" points="6,24 9,17 15,12 22,14 28,22 25,25 9,25"/>
    <polygon class="metal0" points="8,23 11,18 16,14 22,16 26,22 23,24"/>
    <polygon class="metal1" points="10,22 15,14 18,21 14,24"/>
    <polygon class="metal1" points="18,21 22,16 26,22 23,24"/>
    <polygon class="metal2" points="15,14 21,16 18,18 13,18"/>
    <path class="lineDark" d="M18 15L16 20L19 24M12 19L16 20M22 18L19 22"/>
    <rect class="sand2" x="9" y="24" width="5" height="1"/>
  </g>

  <g id="rock_small_moss" transform="translate(32 0)">
    <rect class="shadow" x="6" y="25" width="21" height="2"/>
    <polygon class="outline" points="6,24 8,18 13,14 19,12 25,16 28,23 25,25 9,25"/>
    <polygon class="metal0" points="8,23 10,18 14,16 19,14 24,17 26,22 23,24"/>
    <polygon class="metal1" points="10,22 14,16 18,14 17,23"/>
    <polygon class="metal1" points="18,14 24,17 26,22 17,23"/>
    <polygon class="swamp1" points="9,18 14,16 18,17 15,20 10,20"/>
    <polygon class="leaf2" points="18,15 23,17 25,20 20,19"/>
    <polygon class="metal2" points="14,16 18,14 20,16 16,17"/>
    <rect class="sand0" x="9" y="23" width="6" height="1"/>
  </g>

  <g id="rock_small_snow" transform="translate(64 0)">
    <rect class="shadow" x="6" y="25" width="21" height="2"/>
    <polygon class="outline" points="6,24 9,17 14,13 21,13 27,21 25,25 9,25"/>
    <polygon class="metal0" points="8,23 11,18 15,15 21,15 25,21 23,24"/>
    <polygon class="metal1" points="10,22 15,15 18,22 14,24"/>
    <polygon class="metal1" points="18,22 21,15 25,21 23,24"/>
    <polygon class="snow2" points="11,18 15,14 21,15 24,18 18,18"/>
    <polygon class="snow1" points="8,22 14,22 12,25 8,25"/>
    <polygon class="snow1" points="21,22 26,22 24,25 20,24"/>
    <polygon class="metal2" points="15,16 20,16 23,19 17,19"/>
  </g>

  <g id="rock_small_angled" transform="translate(96 0)">
    <rect class="shadow" x="6" y="25" width="21" height="2"/>
    <polygon class="outline" points="5,24 9,20 13,13 22,11 29,18 27,24 12,26"/>
    <polygon class="metal0" points="8,23 11,20 14,15 22,13 26,18 25,23 13,24"/>
    <polygon class="metal1" points="11,22 14,15 20,14 17,23"/>
    <polygon class="metal1" points="18,23 20,14 26,18 25,23"/>
    <polygon class="metal2" points="15,15 22,13 25,17 18,17"/>
    <polygon class="metal2" points="15,15 22,13 25,17 18,17"/>
    <polygon class="metal0" points="20,19 25,19 23,22 19,22"/>
    <rect class="sand2" x="12" y="24" width="5" height="1"/>
  </g>

  <g id="tree_small" transform="translate(0 160)">
    <rect class="shadow" x="7" y="65" width="34" height="3"/>
    <polygon class="outline" points="18,34 31,34 32,64 28,64 27,56 24,55 20,70 13,70 17,57"/>
    <polygon class="bark0" points="20,35 29,35 29,63 26,63 25,55 23,54 19,68 15,68 19,56"/>
    <rect class="bark1" x="22" y="37" width="5" height="25"/>
    <rect class="bark2" x="26" y="40" width="1" height="17"/>
    <polygon class="outline" points="9,44 3,38 5,29 10,27 10,21 16,16 21,16 25,10 33,11 37,16 43,18 46,25 44,32 48,37 43,45 35,49 29,47 24,43 18,49"/>
    <polygon class="leaf0" points="11,42 6,37 7,30 12,29 13,23 18,18 22,19 26,13 32,14 35,18 41,20 43,26 41,32 45,36 41,42 35,45 29,44 24,40 18,46"/>
    <polygon class="leaf1" points="12,39 11,31 16,27 17,22 23,19 28,16 34,18 37,22 41,24 40,31 43,35 37,39 31,39 25,36 20,42"/>
    <polygon class="leaf2" points="16,34 19,25 26,20 35,22 37,28 33,34 25,36"/>
    <polygon class="leaf3" points="22,19 28,18 31,20 27,22 23,21"/>
    <polygon class="leaf3" points="10,31 15,29 19,31 17,33 11,33"/>
    <polygon class="leaf3" points="36,25 42,27 40,30 35,29"/>
    <polygon class="leaf3" points="24,39 30,40 28,42 23,42"/>
  </g>

  <g id="tree_large" transform="translate(48 160)">
    <rect class="shadow" x="5" y="81" width="58" height="4"/>
    <polygon class="outline" points="25,35 46,35 48,82 42,82 40,70 36,68 29,87 18,87 25,68"/>
    <polygon class="bark0" points="28,37 43,37 44,79 40,79 38,68 35,66 28,84 22,84 28,67"/>
    <rect class="bark1" x="32" y="39" width="8" height="38"/>
    <rect class="bark2" x="39" y="42" width="2" height="28"/>
    <polygon class="outline" points="9,52 2,45 4,34 9,32 10,24 18,17 25,18 31,9 40,8 47,13 54,14 61,21 60,30 68,36 67,47 59,57 49,60 41,57 35,51 27,61 17,59"/>
    <polygon class="leaf0" points="11,50 5,44 7,36 12,34 13,27 20,20 26,21 32,12 39,12 45,16 52,17 58,23 57,31 64,37 63,45 56,53 49,55 41,53 35,47 28,57 18,55"/>
    <polygon class="leaf1" points="13,46 12,37 18,32 19,26 27,23 33,16 41,17 47,21 53,22 55,29 60,36 56,44 48,49 40,48 35,43 29,52 21,51"/>
    <polygon class="leaf2" points="18,39 22,28 32,21 44,22 50,29 48,39 40,44 30,43"/>
    <polygon class="leaf3" points="29,18 38,16 44,19 40,22 31,21"/>
    <polygon class="leaf3" points="12,36 20,34 24,37 20,40 11,39"/>
    <polygon class="leaf3" points="52,26 60,28 57,32 50,30"/>
    <polygon class="leaf3" points="32,48 41,49 39,53 30,52"/>
  </g>

  <g id="pine" transform="translate(120 160)">
    <rect class="shadow" x="6" y="83" width="45" height="3"/>
    <rect class="bark0" x="24" y="65" width="8" height="20"/>
    <rect class="bark1" x="27" y="66" width="3" height="17"/>
    <polygon class="outline" points="28,0 13,25 18,25 7,43 13,43 3,64 10,64 5,84 52,84 45,64 53,64 43,43 49,43 38,25 43,25"/>
    <polygon class="swamp0" points="28,4 16,25 21,25 10,42 16,42 8,62 15,62 10,80 47,80 41,62 48,62 40,42 46,42 35,25 40,25"/>
    <polygon class="swamp1" points="28,11 19,29 24,29 14,46 20,46 13,62 19,62 15,76 41,76 36,62 43,62 36,46 42,46 32,29 37,29"/>
    <polygon class="swamp2" points="28,20 23,34 27,34 19,50 24,50 19,65 37,65 32,50 37,50 29,34 34,34"/>
    <polygon class="snow2" points="25,7 30,5 34,9 31,12 24,11"/>
    <polygon class="snow1" points="18,31 24,29 30,30 27,34 19,35"/>
    <polygon class="snow2" points="32,30 39,32 36,35 30,34"/>
    <polygon class="snow1" points="12,53 20,50 26,52 22,57 13,56"/>
    <polygon class="snow1" points="30,51 39,50 46,54 41,58 32,56"/>
    <polygon class="snow0" points="22,63 29,62 27,66 20,66"/>
    <polygon class="snow0" points="39,64 46,63 44,67 38,67"/>
  </g>

  <g id="palm" transform="translate(176 160)">
    <rect class="shadow" x="8" y="91" width="60" height="3"/>
    <polygon class="outline" points="25,95 41,95 49,18 39,16 34,41 29,68"/>
    <polygon class="bark0" points="29,92 38,92 46,20 40,19 35,43 31,69"/>
    <polygon class="bark1" points="33,90 37,90 44,22 41,21 37,45 34,70"/>
    <rect class="bark2" x="39" y="27" width="7" height="2"/>
    <rect class="bark2" x="38" y="40" width="7" height="2"/>
    <rect class="bark2" x="35" y="55" width="7" height="2"/>
    <rect class="bark2" x="32" y="72" width="7" height="2"/>
    <path class="palmOutline" d="M42 20 C34 8 22 4 8 8 L8 17 C22 15 34 18 41 25 Z"/>
    <path class="palmOutline" d="M42 22 C28 17 13 19 2 27 L7 36 C22 29 34 27 40 26 Z"/>
    <path class="palmOutline" d="M43 25 C32 32 22 44 12 58 L24 59 C32 47 38 36 43 29 Z"/>
    <path class="palmOutline" d="M43 20 C40 9 43 2 49 1 L52 9 C48 12 46 17 46 22 Z"/>
    <path class="palmOutline" d="M44 20 C54 9 66 5 78 10 L76 19 C64 15 53 18 47 25 Z"/>
    <path class="palmOutline" d="M45 22 C58 18 71 20 79 29 L73 37 C62 29 53 27 46 26 Z"/>
    <path class="palmOutline" d="M45 25 C57 33 68 45 73 58 L62 59 C55 48 50 37 45 30 Z"/>
    <path class="palmOutline" d="M43 24 C40 37 41 48 45 59 L52 57 C49 45 48 34 46 24 Z"/>
    <path class="leaf1" d="M40 20 C33 10 23 7 12 10 L12 15 C24 14 34 18 39 23 Z"/>
    <path class="palmMid" d="M40 23 C28 20 16 22 8 28 L10 32 C23 27 34 26 38 25 Z"/>
    <path class="palmMid" d="M42 26 C34 34 25 46 18 55 L24 55 C32 45 38 35 41 30 Z"/>
    <path class="leaf1" d="M43 19 C41 10 44 5 48 4 L49 9 C46 12 45 16 45 20 Z"/>
    <path class="leaf1" d="M46 20 C54 11 64 8 74 12 L72 17 C62 15 53 18 48 23 Z"/>
    <path class="palmMid" d="M47 23 C58 20 69 22 74 29 L71 33 C62 27 53 26 49 25 Z"/>
    <path class="palmMid" d="M46 26 C55 35 64 48 68 55 L62 55 C55 46 50 36 47 30 Z"/>
    <path class="leaf1" d="M44 25 C42 38 43 49 46 55 L49 54 C47 43 47 33 46 26 Z"/>
    <path class="palmLight" d="M28 9 C21 8 16 9 13 11 L25 12 C31 15 35 17 38 20 Z"/>
    <path class="palmLight" d="M25 23 C18 24 12 26 10 29 L24 26 C30 25 34 25 38 25 Z"/>
    <path class="palmLight" d="M33 36 C28 43 23 50 20 54 L31 44 C35 38 38 32 41 28 Z"/>
    <path class="palmLight" d="M59 10 C65 9 70 10 73 13 L61 13 C55 15 51 18 48 21 Z"/>
    <path class="palmLight" d="M59 22 C66 23 71 26 73 29 L61 26 C55 25 51 25 48 25 Z"/>
    <path class="palmLight" d="M55 37 C60 44 64 51 66 55 L57 44 C52 38 49 32 47 28 Z"/>
    <path class="linePalm" d="M39 21L17 12M39 24L12 29M42 28L22 55M47 21L72 13M48 24L73 30M47 28L67 55"/>
    <polygon class="leaf0" points="37,16 44,12 51,17 49,24 42,27 35,22"/>
    <polygon class="leaf2" points="40,17 44,15 48,18 46,22 42,24 38,21"/>
    <rect class="leaf3" x="43" y="16" width="3" height="2"/>
    <rect class="sand2" x="16" y="88" width="22" height="2"/>
  </g>

  <g id="stump" transform="translate(128 0)">
    <rect class="shadow" x="7" y="27" width="19" height="2"/>
    <polygon class="outline" points="9,14 12,10 20,9 25,13 24,24 20,27 11,27 7,24 8,18"/>
    <polygon class="bark0" points="11,15 14,12 20,11 23,14 22,23 19,26 12,26 10,23 10,18"/>
    <polygon class="bark1" points="13,16 15,14 19,13 21,16 20,23 18,25 14,24 12,21 12,18"/>
    <polygon class="bark2" points="12,12 15,10 20,10 24,13 21,16 15,18 10,15"/>
    <ellipse class="outline" cx="17" cy="14" rx="6" ry="3"/>
    <ellipse class="bark2" cx="17" cy="14" rx="4" ry="2"/>
    <path class="lineDark" d="M14 14H20M16 13L18 15"/>
    <path class="lineMetal" d="M15 14H19"/>
    <path class="lineDark" d="M13 18L15 25M20 17L18 25"/>
    <rect class="bark2" x="12" y="20" width="2" height="4"/>
    <rect class="bark0" x="20" y="19" width="2" height="5"/>
    <polygon class="bark0" points="8,23 12,24 12,26 6,26"/>
    <polygon class="bark0" points="21,24 27,25 25,28 20,26"/>
    <polygon class="leaf2" points="9,19 12,18 13,21 10,22"/>
    <rect class="bark2" x="15" y="25" width="3" height="1"/>
  </g>

  <g id="fallen_log_horizontal" transform="translate(160 0)">
    <rect class="shadow" x="3" y="25" width="27" height="2"/>
    <polygon class="outline" points="3,13 26,12 30,16 28,23 4,25 2,21"/>
    <polygon class="bark0" points="5,14 25,13 28,16 26,22 5,24 3,20"/>
    <polygon class="bark1" points="8,15 24,14 26,17 24,21 8,23 6,20"/>
    <polygon class="bark2" points="10,16 17,15 23,16 21,18 11,18"/>
    <polygon class="bark2" points="12,21 20,20 23,21 20,23 11,23"/>
    <path class="lineDark" d="M11 19L17 18M18 16L25 15M7 22L14 21"/>
    <ellipse class="outline" cx="7" cy="18" rx="4" ry="5"/>
    <ellipse class="bark2" cx="7" cy="18" rx="2" ry="3"/>
    <ellipse class="bark0" cx="7" cy="18" rx="1" ry="2"/>
    <polygon class="outline" points="25,13 29,16 27,18 24,17"/>
    <polygon class="bark0" points="24,14 27,16 25,17 23,16"/>
    <rect class="leaf2" x="18" y="14" width="4" height="1"/>
    <rect class="bark0" x="15" y="18" width="2" height="2"/>
  </g>

  <g id="fallen_log_vertical" transform="translate(192 0)">
    <rect class="shadow" x="10" y="28" width="13" height="2"/>
    <polygon class="outline" points="11,4 21,3 22,27 20,30 12,30 10,27"/>
    <polygon class="bark0" points="12,5 20,5 20,27 18,29 13,29 12,26"/>
    <polygon class="bark1" points="14,8 19,7 19,25 17,27 14,27"/>
    <polygon class="bark2" points="15,9 17,8 17,22 15,24"/>
    <polygon class="bark2" points="18,12 20,11 19,23 18,24"/>
    <path class="lineDark" d="M13 13L18 12M14 19L20 18M13 25L17 24"/>
    <ellipse class="outline" cx="16" cy="8" rx="4" ry="4"/>
    <ellipse class="bark2" cx="16" cy="8" rx="2" ry="2"/>
    <ellipse class="bark0" cx="16" cy="8" rx="1" ry="1"/>
    <polygon class="leaf2" points="12,21 14,20 15,23 13,24"/>
    <polygon class="bark0" points="19,26 23,27 21,30 18,29"/>
  </g>

  <g id="rock_small" transform="translate(224 0)">
    <rect class="shadow" x="6" y="25" width="21" height="2"/>
    <polygon class="outline" points="6,24 8,18 13,14 18,11 24,15 28,22 26,25 9,25"/>
    <polygon class="metal0" points="8,23 10,18 14,16 18,13 23,16 26,22 24,24"/>
    <polygon class="metal1" points="10,22 13,16 18,13 18,22"/>
    <polygon class="metal1" points="18,13 23,17 25,22 18,22"/>
    <polygon class="metal2" points="14,16 18,13 22,17 17,18"/>
    <polygon class="sand0" points="8,23 14,22 13,25 7,25"/>
    <polygon class="sand1" points="21,22 26,22 25,24 20,24"/>
    <polygon class="metal0" points="11,19 14,17 16,20 13,22"/>
    <polygon class="metal2" points="14,16 18,13 22,17 17,18"/>
    <polygon class="metal0" points="19,19 24,20 21,22 18,22"/>
    <rect class="metal2" x="14" y="15" width="2" height="1"/>
    <rect class="sand2" x="10" y="23" width="4" height="1"/>
  </g>

  <g id="rock_large" transform="translate(0 32)">
    <rect class="shadow" x="2" y="27" width="29" height="2"/>
    <polygon class="outline" points="3,26 5,18 10,14 13,8 21,9 25,13 29,17 31,25 28,28 6,28"/>
    <polygon class="metal0" points="5,25 7,19 11,16 14,10 20,11 24,14 28,18 29,24 26,26 7,26"/>
    <polygon class="metal1" points="7,24 11,16 15,11 17,20 13,26"/>
    <polygon class="metal1" points="17,20 20,11 25,15 23,24"/>
    <polygon class="metal2" points="14,11 20,11 24,15 17,17 11,16"/>
    <polygon class="metal1" points="23,24 25,15 28,19 29,24"/>
    <polygon class="sand0" points="5,25 13,25 12,28 4,28"/>
    <polygon class="sand1" points="20,25 29,24 27,28 18,28"/>
    <polygon class="metal0" points="10,18 14,16 16,20 12,23"/>
    <polygon class="metal0" points="20,18 24,16 25,22 21,23"/>
    <polygon class="metal2" points="12,13 20,11 24,15 17,17 11,16"/>
    <polygon class="metal0" points="19,19 25,18 24,23 20,23"/>
    <rect class="metal2" x="12" y="13" width="4" height="1"/>
    <rect class="metal2" x="20" y="12" width="3" height="1"/>
    <rect class="sand2" x="7" y="25" width="6" height="1"/>
    <rect class="rust2" x="24" y="25" width="4" height="1"/>
  </g>

  <g id="reeds_cluster" transform="translate(32 32)">
    <rect class="shadow" x="4" y="28" width="24" height="1"/>
    <rect class="swamp0" x="5" y="25" width="23" height="3"/>
    <rect class="swamp1" x="6" y="14" width="2" height="12"/>
    <rect class="swamp1" x="10" y="7" width="2" height="20"/>
    <rect class="swamp2" x="14" y="10" width="2" height="17"/>
    <rect class="swamp1" x="20" y="6" width="2" height="21"/>
    <rect class="swamp2" x="25" y="12" width="2" height="15"/>
    <rect class="sand0" x="9" y="6" width="4" height="2"/>
    <rect class="sand0" x="19" y="5" width="4" height="2"/>
    <rect class="glow" x="6" y="26" width="18" height="1" opacity=".35"/>
  </g>

  <g id="bush" transform="translate(64 32)">
    <rect class="shadow" x="5" y="27" width="24" height="2"/>
    <polygon class="outline" points="6,25 6,18 9,17 9,14 13,13 14,10 20,10 21,12 25,12 26,15 29,16 28,24 25,26 9,26"/>
    <polygon class="leaf0" points="8,24 8,19 11,18 11,15 14,14 15,12 20,12 21,14 24,14 24,16 26,17 26,23 24,24"/>
    <polygon class="leaf1" points="9,22 10,17 14,15 16,13 21,14 23,16 26,18 24,22 18,23 14,22"/>
    <rect class="leaf2" x="12" y="15" width="11" height="3"/>
    <rect class="leaf3" x="14" y="12" width="6" height="2"/>
    <rect class="leaf3" x="22" y="17" width="3" height="2"/>
    <rect class="leaf3" x="9" y="20" width="4" height="1"/>
  </g>

  <g id="dry_bush" transform="translate(96 32)">
    <rect class="shadow" x="6" y="27" width="21" height="2"/>
    <polygon class="outline" points="7,25 8,18 11,17 12,13 15,18 18,10 21,18 25,16 26,24 23,26 10,26"/>
    <polygon class="sand0" points="9,24 10,19 12,18 13,15 16,20 18,13 20,20 24,18 24,23 22,24"/>
    <rect class="sand1" x="9" y="20" width="15" height="4"/>
    <rect class="bark0" x="12" y="13" width="2" height="12"/>
    <rect class="bark0" x="18" y="10" width="2" height="15"/>
    <rect class="bark1" x="7" y="16" width="2" height="9"/>
    <rect class="bark1" x="25" y="17" width="2" height="7"/>
    <rect class="sand2" x="10" y="20" width="5" height="1"/>
    <rect class="sand2" x="20" y="15" width="4" height="1"/>
  </g>

  <g id="snow_bush" transform="translate(128 32)">
    <rect class="shadow" x="6" y="27" width="22" height="2"/>
    <polygon class="outline" points="7,25 7,17 10,16 10,13 15,12 16,10 23,11 24,14 27,15 28,23 25,26 10,26"/>
    <polygon class="snow0" points="9,24 9,18 12,17 12,15 16,14 17,12 22,13 23,15 25,16 26,22 24,24"/>
    <polygon class="snow1" points="8,18 12,15 16,13 22,13 26,17 24,21 16,20 11,21"/>
    <rect class="snow2" x="13" y="11" width="10" height="3"/>
    <rect class="snow2" x="9" y="17" width="7" height="2"/>
    <rect class="swamp1" x="12" y="22" width="11" height="2"/>
  </g>

  <g id="crate_wood" transform="translate(160 32)">
    <rect class="shadow" x="5" y="26" width="22" height="2"/>
    <rect class="outline" x="5" y="8" width="22" height="18"/>
    <rect class="bark0" x="6" y="9" width="20" height="16"/>
    <rect class="bark1" x="8" y="10" width="16" height="14"/>
    <rect class="bark2" x="8" y="12" width="16" height="2"/>
    <rect class="bark2" x="8" y="21" width="16" height="2"/>
    <rect class="outline" x="14" y="9" width="3" height="16"/>
    <polygon class="outline" points="8,10 11,10 25,23 25,25 22,25 8,12"/>
    <polygon class="outline" points="24,10 21,10 7,23 7,25 10,25 24,12"/>
  </g>

  <g id="crate_metal" transform="translate(192 32)">
    <rect class="shadow" x="5" y="26" width="22" height="2"/>
    <rect class="outline" x="5" y="8" width="22" height="18"/>
    <rect class="metal0" x="6" y="9" width="20" height="16"/>
    <rect class="metal1" x="8" y="10" width="16" height="14"/>
    <rect class="metal2" x="9" y="12" width="14" height="2"/>
    <rect class="warn" x="8" y="18" width="16" height="3"/>
    <rect class="outline" x="13" y="18" width="3" height="3"/>
    <rect class="outline" x="21" y="18" width="3" height="3"/>
    <rect class="outline" x="15" y="10" width="2" height="15"/>
  </g>

  <g id="fuel_barrel" transform="translate(224 32)">
    <rect class="shadow" x="8" y="27" width="16" height="2"/>
    <rect class="outline" x="9" y="7" width="15" height="20"/>
    <rect class="danger" x="10" y="9" width="13" height="17"/>
    <rect class="rust0" x="10" y="7" width="13" height="3"/>
    <rect class="rust0" x="10" y="24" width="13" height="3"/>
    <rect class="warn" x="11" y="12" width="11" height="2"/>
    <rect class="warn" x="11" y="21" width="11" height="2"/>
    <rect class="metal2" x="18" y="10" width="2" height="13"/>
    <rect class="outline" x="14" y="16" width="4" height="3"/>
  </g>

  <g id="sandbags" transform="translate(0 64)">
    <rect class="shadow" x="4" y="27" width="24" height="2"/>
    <polygon class="outline" points="4,20 6,18 14,18 15,20 14,25 5,26 3,24"/>
    <polygon class="outline" points="15,20 17,18 25,18 27,21 25,26 16,26 14,24"/>
    <polygon class="outline" points="9,14 12,12 19,12 21,15 20,20 10,20 8,18"/>
    <polygon class="outline" points="18,15 20,13 26,14 28,17 26,21 19,20"/>
    <polygon class="sand0" points="5,21 7,19 13,19 13,24 5,25"/>
    <polygon class="sand0" points="16,21 18,19 24,19 25,22 24,25 16,25"/>
    <polygon class="sand1" points="10,15 13,13 18,13 19,16 18,19 10,19"/>
    <polygon class="sand1" points="19,16 21,15 25,15 26,18 25,20 19,19"/>
    <rect class="sand2" x="7" y="21" width="4" height="1"/>
    <rect class="sand2" x="12" y="15" width="4" height="1"/>
  </g>

  <g id="barbed_wire" transform="translate(32 64)">
    <rect class="shadow" x="4" y="25" width="24" height="2"/>
    <rect class="outline" x="5" y="12" width="2" height="14"/>
    <rect class="outline" x="25" y="12" width="2" height="14"/>
    <path class="lineDark" d="M6 16H26M6 21H26"/>
    <path class="lineMetal" d="M6 16H26M6 21H26"/>
    <polygon class="outline" points="9,12 12,16 9,19 6,16"/>
    <polygon class="outline" points="16,17 19,21 16,24 13,21"/>
    <polygon class="outline" points="24,12 27,16 24,19 21,16"/>
    <rect class="danger" x="15" y="13" width="2" height="2"/>
    <rect class="danger" x="22" y="21" width="2" height="2"/>
  </g>

  <g id="tank_wreck" transform="translate(64 64)">
    <rect class="shadow" x="3" y="27" width="26" height="2"/>
    <polygon class="outline" points="3,18 7,15 24,16 29,20 27,26 5,27 2,24"/>
    <polygon class="coal" points="5,19 8,17 23,18 27,21 25,25 6,25 4,23"/>
    <polygon class="rust0" points="8,18 20,18 24,21 22,24 8,24"/>
    <rect class="rust1" x="9" y="19" width="11" height="3"/>
    <rect class="metal0" x="6" y="24" width="19" height="2"/>
    <rect class="outline" x="13" y="13" width="13" height="4"/>
    <rect class="rust1" x="14" y="14" width="10" height="2"/>
    <rect class="outline" x="23" y="12" width="6" height="2"/>
    <rect class="rust2" x="10" y="18" width="5" height="1"/>
    <rect class="danger" x="19" y="22" width="2" height="2"/>
  </g>

  <g id="broken_turret" transform="translate(96 64)">
    <rect class="shadow" x="7" y="26" width="19" height="2"/>
    <polygon class="outline" points="9,19 14,15 23,16 25,21 22,25 11,25"/>
    <polygon class="rust0" points="11,20 15,17 22,18 23,21 21,24 12,24"/>
    <rect class="outline" x="19" y="13" width="9" height="3" transform="rotate(-14 19 13)"/>
    <rect class="rust1" x="20" y="14" width="7" height="1" transform="rotate(-14 20 14)"/>
    <rect class="metal0" x="12" y="23" width="11" height="2"/>
    <rect class="danger" x="14" y="18" width="2" height="2"/>
  </g>

  <g id="crater_small" transform="translate(128 64)">
    <rect class="shadow" x="8" y="25" width="17" height="2"/>
    <ellipse class="outline" cx="16" cy="19" rx="10" ry="7"/>
    <ellipse class="coal" cx="16" cy="19" rx="8" ry="5"/>
    <ellipse class="rust0" cx="16" cy="19" rx="5" ry="3"/>
    <rect class="sand0" x="8" y="17" width="5" height="2"/>
    <rect class="rust2" x="20" y="21" width="4" height="1"/>
    <rect class="metal0" x="14" y="15" width="3" height="1"/>
  </g>

  <g id="crater_large" transform="translate(160 64)">
    <rect class="shadow" x="4" y="26" width="25" height="2"/>
    <ellipse class="outline" cx="16" cy="18" rx="13" ry="9"/>
    <ellipse class="coal" cx="16" cy="18" rx="11" ry="7"/>
    <ellipse class="rust0" cx="16" cy="18" rx="7" ry="4"/>
    <rect class="sand0" x="5" y="17" width="6" height="2"/>
    <rect class="rust2" x="22" y="22" width="5" height="1"/>
    <rect class="metal0" x="12" y="13" width="5" height="1"/>
    <rect class="metal1" x="18" y="15" width="4" height="1"/>
  </g>

  <g id="rubble_pile" transform="translate(192 64)">
    <rect class="shadow" x="4" y="27" width="25" height="2"/>
    <polygon class="outline" points="4,26 8,18 13,20 17,13 23,18 29,26"/>
    <polygon class="coal" points="6,25 9,20 13,22 17,15 22,19 26,25"/>
    <polygon class="metal0" points="8,24 13,17 17,23"/>
    <polygon class="rust1" points="17,24 21,18 25,24"/>
    <rect class="metal2" x="11" y="19" width="4" height="1"/>
    <rect class="rust2" x="20" y="21" width="4" height="1"/>
  </g>

  <g id="roadblock" transform="translate(224 64)">
    <rect class="shadow" x="3" y="26" width="26" height="2"/>
    <rect class="outline" x="5" y="18" width="22" height="6"/>
    <rect class="metal0" x="6" y="19" width="20" height="4"/>
    <rect class="warn" x="8" y="20" width="4" height="2"/>
    <rect class="warn" x="16" y="20" width="4" height="2"/>
    <rect class="rust1" x="23" y="19" width="2" height="4"/>
    <rect class="outline" x="8" y="23" width="4" height="4"/>
    <rect class="outline" x="21" y="23" width="4" height="4"/>
    <rect class="metal1" x="9" y="24" width="2" height="3"/>
    <rect class="metal1" x="22" y="24" width="2" height="3"/>
  </g>

  <g id="czech_hedgehog" transform="translate(0 96)">
    <rect class="shadow" x="5" y="26" width="22" height="2"/>
    <path class="lineDark" d="M7 25L25 11M8 12L25 25M16 8V28M5 18H28"/>
    <path class="lineMetal" d="M7 25L25 11M8 12L25 25M16 8V28M5 18H28"/>
    <rect class="warn" x="15" y="17" width="3" height="3"/>
    <rect class="rust1" x="22" y="12" width="2" height="2"/>
  </g>

  <g id="relay_tower" transform="translate(32 96)">
    <rect class="shadow" x="7" y="29" width="18" height="1"/>
    <rect class="outline" x="15" y="3" width="2" height="25"/>
    <path class="lineDark" d="M16 4L8 28M16 4L24 28M9 20H23M11 14H21M13 8H19"/>
    <path class="lineMetal" d="M16 4L8 28M16 4L24 28M9 20H23M11 14H21M13 8H19"/>
    <rect class="metal2" x="14" y="2" width="4" height="3"/>
    <rect class="warn" x="14" y="19" width="4" height="2"/>
    <path class="lineGlow" d="M12 6L8 3M20 6L24 3"/>
  </g>

  <g id="portable_relay" transform="translate(64 96)">
    <rect class="shadow" x="7" y="27" width="19" height="2"/>
    <rect class="outline" x="8" y="17" width="17" height="9"/>
    <rect class="metal0" x="9" y="18" width="15" height="7"/>
    <rect class="metal1" x="11" y="19" width="11" height="5"/>
    <rect class="glow" x="14" y="20" width="5" height="2"/>
    <path class="lineDark" d="M17 17V8M17 8L12 5M17 8L22 5"/>
    <path class="lineMetal" d="M17 17V8M17 8L12 5M17 8L22 5"/>
    <rect class="warn" x="10" y="23" width="4" height="1"/>
  </g>

  <g id="broken_relay" transform="translate(96 96)">
    <rect class="shadow" x="7" y="27" width="19" height="2"/>
    <rect class="outline" x="8" y="18" width="17" height="8"/>
    <rect class="metal0" x="9" y="19" width="15" height="6"/>
    <rect class="rust1" x="11" y="20" width="6" height="4"/>
    <rect class="danger" x="18" y="22" width="3" height="2"/>
    <path class="lineDark" d="M16 18V10M16 10L11 7M18 12L23 9"/>
    <path class="lineMetal" d="M16 18V10M16 10L11 7M18 12L23 9"/>
    <rect class="coal" x="21" y="24" width="3" height="1"/>
  </g>

  <g id="antenna_mast" transform="translate(128 96)">
    <rect class="shadow" x="9" y="29" width="15" height="1"/>
    <rect class="outline" x="15" y="3" width="2" height="26"/>
    <rect class="metal2" x="15" y="4" width="1" height="24"/>
    <path class="lineDark" d="M16 6L8 13M16 6L24 13M16 12L10 18M16 12L22 18M12 28H21"/>
    <path class="lineMetal" d="M16 6L8 13M16 6L24 13M16 12L10 18M16 12L22 18M12 28H21"/>
    <rect class="glow" x="14" y="2" width="4" height="2"/>
    <rect class="warn" x="13" y="25" width="6" height="2"/>
  </g>

  <g id="generator" transform="translate(160 96)">
    <rect class="shadow" x="5" y="27" width="23" height="2"/>
    <rect class="outline" x="5" y="13" width="23" height="13"/>
    <rect class="metal0" x="6" y="14" width="21" height="11"/>
    <rect class="metal1" x="8" y="15" width="12" height="9"/>
    <rect class="warn" x="21" y="16" width="5" height="4"/>
    <rect class="glow" x="11" y="18" width="5" height="2"/>
    <rect class="outline" x="8" y="23" width="4" height="3"/>
    <rect class="outline" x="21" y="23" width="4" height="3"/>
    <path class="lineDark" d="M9 12H20"/>
    <path class="lineMetal" d="M9 12H20"/>
  </g>

  <g id="emp_emitter" transform="translate(192 96)">
    <rect class="shadow" x="6" y="28" width="22" height="1"/>
    <rect class="outline" x="10" y="19" width="13" height="8"/>
    <rect class="metal0" x="11" y="20" width="11" height="6"/>
    <rect class="glow" x="14" y="21" width="5" height="3"/>
    <path class="lineDark" d="M16 19V8M10 12L16 8L22 12M9 17H23"/>
    <path class="lineMetal" d="M16 19V8M10 12L16 8L22 12M9 17H23"/>
    <path class="lineGlow" d="M8 9L5 6M24 9L27 6M7 15H3M25 15H29"/>
    <rect class="warn" x="11" y="25" width="10" height="1"/>
  </g>

  <g id="signal_jammer" transform="translate(224 96)">
    <rect class="shadow" x="6" y="28" width="22" height="1"/>
    <rect class="outline" x="10" y="18" width="13" height="9"/>
    <rect class="metal0" x="11" y="19" width="11" height="7"/>
    <rect class="danger" x="13" y="21" width="6" height="3"/>
    <path class="lineDark" d="M16 18V7M11 9L16 6L21 9M9 13H23M8 16H24"/>
    <path class="lineMetal" d="M16 18V7M11 9L16 6L21 9M9 13H23M8 16H24"/>
    <path class="lineWarn" d="M6 8L3 5M26 8L29 5M5 15H2M27 15H30"/>
  </g>

  <g id="field_lamp" transform="translate(0 128)">
    <rect class="shadow" x="9" y="28" width="14" height="1"/>
    <rect class="outline" x="15" y="11" width="2" height="17"/>
    <rect class="metal1" x="15" y="12" width="1" height="15"/>
    <rect class="outline" x="11" y="8" width="10" height="5"/>
    <rect class="metal0" x="12" y="9" width="8" height="3"/>
    <rect class="warn" x="14" y="10" width="4" height="1" opacity=".75"/>
    <rect class="outline" x="12" y="27" width="8" height="2"/>
  </g>

  <g id="warning_sign" transform="translate(32 128)">
    <rect class="shadow" x="8" y="28" width="17" height="1"/>
    <rect class="outline" x="15" y="17" width="2" height="11"/>
    <rect class="metal1" x="15" y="18" width="1" height="10"/>
    <polygon class="outline" points="16,5 27,23 5,23"/>
    <polygon class="warn" points="16,8 24,21 8,21"/>
    <rect class="outline" x="15" y="12" width="2" height="5"/>
    <rect class="outline" x="15" y="18" width="2" height="2"/>
    <rect class="rust1" x="8" y="22" width="16" height="1"/>
  </g>

  <g id="rock_large_cracked" transform="translate(64 128)">
    <rect class="shadow" x="2" y="27" width="29" height="2"/>
    <polygon class="outline" points="3,26 5,18 11,14 14,8 22,9 27,15 31,24 28,28 6,28"/>
    <polygon class="metal0" points="5,25 7,19 12,16 15,10 21,11 25,16 29,24 26,26 7,26"/>
    <polygon class="metal1" points="8,24 12,16 16,11 17,25 12,27"/>
    <polygon class="metal1" points="17,25 21,11 26,17 26,26"/>
    <polygon class="metal2" points="15,11 21,11 25,16 17,17 11,16"/>
    <path class="lineDark" d="M18 12L16 19L19 27M12 17L16 19M24 17L20 23M13 25H23"/>
    <rect class="sand2" x="7" y="26" width="6" height="1"/>
  </g>

  <g id="rock_large_moss" transform="translate(96 128)">
    <rect class="shadow" x="2" y="27" width="29" height="2"/>
    <polygon class="outline" points="3,26 5,18 10,14 14,8 22,9 26,14 30,22 28,28 6,28"/>
    <polygon class="metal0" points="5,25 7,19 11,16 15,10 21,11 25,15 28,22 26,26 7,26"/>
    <polygon class="metal1" points="7,24 11,16 16,11 17,25 12,27"/>
    <polygon class="metal1" points="17,25 21,11 25,15 27,24"/>
    <polygon class="swamp1" points="8,18 15,13 21,13 18,17 11,20"/>
    <polygon class="leaf2" points="19,13 25,16 27,20 20,19"/>
    <polygon class="swamp2" points="9,24 16,23 14,27 7,27"/>
    <polygon class="metal2" points="13,13 21,12 25,15 18,17 11,17"/>
    <polygon class="metal0" points="19,20 25,19 24,24 20,24"/>
    <rect class="sand0" x="7" y="26" width="6" height="1"/>
  </g>

  <g id="rock_large_snow" transform="translate(128 128)">
    <rect class="shadow" x="2" y="27" width="29" height="2"/>
    <polygon class="outline" points="3,26 5,18 10,14 14,8 22,9 27,15 31,24 28,28 6,28"/>
    <polygon class="metal0" points="5,25 7,19 12,16 15,10 21,11 25,16 29,24 26,26 7,26"/>
    <polygon class="metal1" points="8,24 12,16 16,11 17,25 12,27"/>
    <polygon class="metal1" points="17,25 21,11 26,17 26,26"/>
    <polygon class="snow2" points="10,16 15,9 22,10 27,16 20,16"/>
    <polygon class="snow1" points="5,24 13,24 11,28 4,28"/>
    <polygon class="snow1" points="21,24 30,24 27,28 19,27"/>
    <polygon class="metal2" points="14,13 22,12 26,17 18,17"/>
    <rect class="snow2" x="13" y="12" width="4" height="1"/>
  </g>

  <g id="rock_large_angled" transform="translate(160 128)">
    <rect class="shadow" x="2" y="27" width="29" height="2"/>
    <polygon class="outline" points="2,26 7,21 10,15 18,8 28,12 31,20 27,28 8,29"/>
    <polygon class="metal0" points="5,25 9,21 12,16 18,10 26,13 29,20 26,26 9,27"/>
    <polygon class="metal1" points="8,24 12,16 18,10 17,26 11,27"/>
    <polygon class="metal1" points="17,26 18,10 26,13 27,24"/>
    <polygon class="metal2" points="13,16 18,10 25,13 18,17"/>
    <polygon class="metal2" points="13,16 18,10 25,13 18,17"/>
    <polygon class="metal0" points="20,19 27,18 25,24 19,24"/>
    <rect class="sand2" x="8" y="27" width="7" height="1"/>
    <rect class="rust2" x="23" y="25" width="4" height="1"/>
  </g>
</svg>
