<svg xmlns="http://www.w3.org/2000/svg" width="256" height="160" viewBox="0 0 256 160" shape-rendering="crispEdges">
  <defs>
    <style>
      .outline{fill:#080908}
      .shadow{fill:#10120e;opacity:.45}
      .wood{fill:#7b4b25}
      .wood2{fill:#b4773b}
      .leaf{fill:#2f6b35}
      .leaf2{fill:#6fa34f}
      .swamp{fill:#405d2c}
      .sand{fill:#c79a55}
      .snow{fill:#e8f6f7}
      .snow2{fill:#8fb7c8}
      .metal{fill:#6c7472}
      .metal2{fill:#c5cec9}
      .rust{fill:#7f4b2d}
      .warn{fill:#d6b33e}
      .danger{fill:#be3d2f}
      .coal{fill:#24221e}
      .glow{fill:#86f4ff}
    </style>
  </defs>

  <g id="tree_small" transform="translate(0 0)">
    <rect class="shadow" x="8" y="25" width="16" height="3"/>
    <rect class="wood" x="14" y="14" width="4" height="13"/>
    <rect class="outline" x="8" y="9" width="16" height="10"/>
    <rect class="leaf" x="7" y="8" width="17" height="10"/>
    <rect class="leaf2" x="10" y="5" width="13" height="8"/>
    <rect class="leaf2" x="6" y="13" width="8" height="6"/>
  </g>

  <g id="tree_large" transform="translate(32 0)">
    <rect class="shadow" x="5" y="25" width="22" height="4"/>
    <rect class="wood" x="14" y="13" width="5" height="15"/>
    <rect class="outline" x="5" y="7" width="22" height="14"/>
    <rect class="leaf" x="4" y="8" width="23" height="12"/>
    <rect class="leaf2" x="8" y="3" width="17" height="10"/>
    <rect class="leaf2" x="12" y="14" width="14" height="7"/>
  </g>

  <g id="pine" transform="translate(64 0)">
    <rect class="shadow" x="8" y="26" width="17" height="3"/>
    <rect class="wood" x="14" y="19" width="4" height="8"/>
    <polygon class="outline" points="16,2 5,20 11,20 4,27 28,27 21,20 27,20"/>
    <polygon class="swamp" points="16,3 7,19 13,19 6,25 26,25 19,19 25,19"/>
    <rect class="snow" x="13" y="8" width="7" height="2"/>
    <rect class="snow" x="10" y="17" width="11" height="2"/>
  </g>

  <g id="palm" transform="translate(96 0)">
    <rect class="shadow" x="6" y="26" width="18" height="3"/>
    <polygon class="wood" points="13,27 17,27 20,8 16,8"/>
    <rect class="wood2" x="15" y="12" width="3" height="3"/>
    <rect class="wood2" x="14" y="18" width="3" height="3"/>
    <polygon class="outline" points="17,5 5,3 13,9 2,12 14,13 8,20 18,12 25,21 22,12 31,8 21,7 28,2"/>
    <polygon class="leaf2" points="17,6 7,4 14,9 4,12 14,12 9,18 18,11 24,18 21,11 29,8 21,7 26,3"/>
  </g>

  <g id="stump" transform="translate(128 0)">
    <rect class="shadow" x="9" y="24" width="15" height="4"/>
    <rect class="outline" x="9" y="14" width="15" height="11"/>
    <rect class="wood" x="10" y="15" width="13" height="10"/>
    <rect class="wood2" x="11" y="13" width="11" height="5"/>
    <rect class="outline" x="14" y="14" width="4" height="2"/>
    <rect class="wood2" x="13" y="20" width="2" height="4"/>
  </g>

  <g id="fallen_log_horizontal" transform="translate(160 0)">
    <rect class="shadow" x="3" y="22" width="26" height="4"/>
    <rect class="outline" x="3" y="12" width="26" height="10"/>
    <rect class="wood" x="4" y="13" width="24" height="8"/>
    <rect class="wood2" x="6" y="15" width="18" height="2"/>
    <rect class="wood2" x="7" y="19" width="15" height="1"/>
    <rect class="outline" x="5" y="13" width="4" height="8"/>
  </g>

  <g id="fallen_log_vertical" transform="translate(192 0)">
    <rect class="shadow" x="10" y="25" width="13" height="3"/>
    <rect class="outline" x="11" y="3" width="10" height="25"/>
    <rect class="wood" x="12" y="4" width="8" height="23"/>
    <rect class="wood2" x="14" y="7" width="2" height="17"/>
    <rect class="wood2" x="18" y="10" width="1" height="13"/>
    <rect class="outline" x="12" y="5" width="8" height="4"/>
  </g>

  <g id="rock_small" transform="translate(224 0)">
    <rect class="shadow" x="8" y="23" width="16" height="4"/>
    <polygon class="outline" points="7,22 10,15 17,12 24,17 25,22"/>
    <polygon class="metal" points="9,21 11,16 17,14 22,18 23,21"/>
    <rect class="metal2" x="12" y="16" width="5" height="2"/>
  </g>

  <g id="rock_large" transform="translate(0 32)">
    <rect class="shadow" x="4" y="23" width="25" height="5"/>
    <polygon class="outline" points="4,23 6,15 13,9 21,11 28,18 28,24"/>
    <polygon class="metal" points="6,22 8,16 14,11 21,13 26,18 26,23"/>
    <rect class="metal2" x="10" y="14" width="7" height="2"/>
    <rect class="metal2" x="19" y="17" width="4" height="2"/>
  </g>

  <g id="reeds_cluster" transform="translate(32 32)">
    <rect class="shadow" x="5" y="26" width="23" height="3"/>
    <rect class="swamp" x="6" y="13" width="2" height="14"/>
    <rect class="swamp" x="10" y="7" width="2" height="20"/>
    <rect class="swamp" x="15" y="10" width="2" height="17"/>
    <rect class="swamp" x="21" y="6" width="2" height="21"/>
    <rect class="swamp" x="25" y="12" width="2" height="15"/>
    <rect class="leaf2" x="9" y="6" width="4" height="2"/>
    <rect class="leaf2" x="20" y="5" width="4" height="2"/>
  </g>

  <g id="bush" transform="translate(64 32)">
    <rect class="shadow" x="5" y="25" width="23" height="3"/>
    <rect class="outline" x="6" y="14" width="21" height="10"/>
    <rect class="leaf" x="7" y="13" width="20" height="11"/>
    <rect class="leaf2" x="10" y="10" width="9" height="7"/>
    <rect class="leaf2" x="18" y="12" width="7" height="6"/>
  </g>

  <g id="dry_bush" transform="translate(96 32)">
    <rect class="shadow" x="6" y="25" width="21" height="3"/>
    <rect class="sand" x="8" y="18" width="17" height="6"/>
    <rect class="wood" x="12" y="12" width="2" height="12"/>
    <rect class="wood" x="18" y="10" width="2" height="14"/>
    <rect class="wood2" x="7" y="15" width="2" height="9"/>
    <rect class="wood2" x="24" y="16" width="2" height="8"/>
  </g>

  <g id="snow_bush" transform="translate(128 32)">
    <rect class="shadow" x="6" y="25" width="21" height="3"/>
    <rect class="snow2" x="7" y="15" width="20" height="8"/>
    <rect class="snow" x="8" y="13" width="16" height="7"/>
    <rect class="snow" x="13" y="10" width="9" height="5"/>
    <rect class="swamp" x="12" y="21" width="12" height="2"/>
  </g>

  <g id="crate_wood" transform="translate(160 32)">
    <rect class="shadow" x="6" y="24" width="20" height="4"/>
    <rect class="outline" x="6" y="9" width="20" height="16"/>
    <rect class="wood" x="7" y="10" width="18" height="14"/>
    <rect class="wood2" x="8" y="12" width="16" height="2"/>
    <rect class="wood2" x="8" y="20" width="16" height="2"/>
    <polygon class="outline" points="8,11 11,11 24,22 24,24 21,24 8,13"/>
    <polygon class="outline" points="24,11 21,11 8,22 8,24 11,24 24,13"/>
  </g>

  <g id="crate_metal" transform="translate(192 32)">
    <rect class="shadow" x="6" y="24" width="20" height="4"/>
    <rect class="outline" x="6" y="9" width="20" height="16"/>
    <rect class="metal" x="7" y="10" width="18" height="14"/>
    <rect class="metal2" x="9" y="12" width="14" height="2"/>
    <rect class="warn" x="9" y="18" width="14" height="3"/>
    <rect class="outline" x="15" y="10" width="2" height="14"/>
  </g>

  <g id="fuel_barrel" transform="translate(224 32)">
    <rect class="shadow" x="9" y="25" width="15" height="3"/>
    <rect class="outline" x="10" y="7" width="13" height="19"/>
    <rect class="danger" x="11" y="8" width="11" height="17"/>
    <rect class="warn" x="11" y="12" width="11" height="2"/>
    <rect class="warn" x="11" y="20" width="11" height="2"/>
    <rect class="metal2" x="18" y="9" width="2" height="15"/>
  </g>

  <g id="sandbags" transform="translate(0 64)">
    <rect class="shadow" x="4" y="25" width="24" height="3"/>
    <rect class="outline" x="5" y="18" width="9" height="6"/>
    <rect class="outline" x="14" y="18" width="9" height="6"/>
    <rect class="outline" x="9" y="13" width="9" height="6"/>
    <rect class="sand" x="6" y="19" width="7" height="4"/>
    <rect class="sand" x="15" y="19" width="7" height="4"/>
    <rect class="sand" x="10" y="14" width="7" height="4"/>
  </g>

  <g id="barbed_wire" transform="translate(32 64)">
    <rect class="shadow" x="4" y="22" width="24" height="3"/>
    <rect class="metal2" x="4" y="15" width="24" height="2"/>
    <rect class="metal" x="4" y="20" width="24" height="2"/>
    <polygon class="outline" points="8,12 11,15 8,18 5,15"/>
    <polygon class="outline" points="16,17 19,20 16,23 13,20"/>
    <polygon class="outline" points="24,12 27,15 24,18 21,15"/>
  </g>

  <g id="tank_wreck" transform="translate(64 64)">
    <rect class="shadow" x="4" y="25" width="24" height="3"/>
    <rect class="outline" x="4" y="16" width="23" height="9"/>
    <rect class="coal" x="5" y="17" width="21" height="7"/>
    <rect class="rust" x="8" y="13" width="10" height="6"/>
    <rect class="outline" x="15" y="11" width="13" height="3"/>
    <rect class="rust" x="17" y="12" width="9" height="1"/>
    <rect class="warn" x="7" y="20" width="4" height="1"/>
  </g>

  <g id="broken_turret" transform="translate(96 64)">
    <rect class="shadow" x="8" y="25" width="17" height="3"/>
    <rect class="outline" x="10" y="16" width="12" height="9"/>
    <rect class="rust" x="11" y="17" width="10" height="7"/>
    <rect class="outline" x="17" y="12" width="9" height="3"/>
    <rect class="coal" x="23" y="10" width="4" height="3"/>
    <rect class="metal" x="14" y="15" width="5" height="2"/>
  </g>

  <g id="crater_small" transform="translate(128 64)">
    <rect class="shadow" x="8" y="24" width="16" height="3"/>
    <ellipse class="outline" cx="16" cy="19" rx="9" ry="6"/>
    <ellipse class="rust" cx="16" cy="19" rx="7" ry="4"/>
    <ellipse class="coal" cx="16" cy="19" rx="4" ry="2"/>
  </g>

  <g id="crater_large" transform="translate(160 64)">
    <rect class="shadow" x="4" y="25" width="24" height="3"/>
    <ellipse class="outline" cx="16" cy="18" rx="13" ry="8"/>
    <ellipse class="rust" cx="16" cy="18" rx="11" ry="6"/>
    <ellipse class="coal" cx="16" cy="18" rx="7" ry="3"/>
    <rect class="sand" x="7" y="14" width="5" height="2"/>
  </g>

  <g id="rubble_pile" transform="translate(192 64)">
    <rect class="shadow" x="5" y="25" width="23" height="3"/>
    <polygon class="outline" points="5,24 10,15 15,20 20,12 27,24"/>
    <polygon class="metal" points="7,23 10,17 15,22 20,14 25,23"/>
    <rect class="rust" x="12" y="20" width="5" height="3"/>
    <rect class="metal2" x="19" y="17" width="4" height="2"/>
  </g>

  <g id="roadblock" transform="translate(224 64)">
    <rect class="shadow" x="5" y="25" width="23" height="3"/>
    <rect class="outline" x="5" y="15" width="22" height="6"/>
    <rect class="warn" x="6" y="16" width="20" height="4"/>
    <rect class="danger" x="8" y="16" width="4" height="4"/>
    <rect class="danger" x="18" y="16" width="4" height="4"/>
    <rect class="outline" x="9" y="21" width="3" height="6"/>
    <rect class="outline" x="21" y="21" width="3" height="6"/>
  </g>

  <g id="czech_hedgehog" transform="translate(0 96)">
    <rect class="shadow" x="6" y="25" width="22" height="3"/>
    <polygon class="outline" points="8,9 12,9 24,23 20,23"/>
    <polygon class="outline" points="24,9 20,9 8,23 12,23"/>
    <rect class="metal2" x="9" y="15" width="14" height="3"/>
    <rect class="metal" x="15" y="8" width="3" height="17"/>
  </g>

  <g id="relay_tower" transform="translate(32 96)">
    <rect class="shadow" x="6" y="27" width="21" height="2"/>
    <rect class="outline" x="15" y="4" width="3" height="23"/>
    <polygon class="metal" points="16,4 8,27 24,27"/>
    <rect class="glow" x="13" y="7" width="7" height="2"/>
    <rect class="glow" x="11" y="12" width="11" height="2"/>
    <rect class="warn" x="13" y="23" width="7" height="2"/>
  </g>

  <g id="portable_relay" transform="translate(64 96)">
    <rect class="shadow" x="8" y="26" width="17" height="3"/>
    <rect class="metal" x="12" y="18" width="8" height="6"/>
    <rect class="glow" x="14" y="16" width="4" height="3"/>
    <rect class="outline" x="15" y="8" width="2" height="8"/>
    <rect class="metal2" x="8" y="24" width="3" height="3"/>
    <rect class="metal2" x="21" y="24" width="3" height="3"/>
  </g>

  <g id="broken_relay" transform="translate(96 96)">
    <rect class="shadow" x="6" y="26" width="21" height="3"/>
    <polygon class="outline" points="12,12 15,11 24,25 21,26"/>
    <rect class="rust" x="11" y="20" width="12" height="5"/>
    <rect class="danger" x="17" y="14" width="3" height="3"/>
    <rect class="metal" x="8" y="24" width="5" height="2"/>
  </g>

  <g id="antenna_mast" transform="translate(128 96)">
    <rect class="shadow" x="8" y="27" width="17" height="2"/>
    <rect class="outline" x="15" y="3" width="2" height="24"/>
    <rect class="metal2" x="14" y="4" width="4" height="21"/>
    <rect class="glow" x="10" y="8" width="12" height="1"/>
    <rect class="glow" x="8" y="13" width="16" height="1"/>
    <rect class="glow" x="12" y="18" width="8" height="1"/>
  </g>

  <g id="generator" transform="translate(160 96)">
    <rect class="shadow" x="5" y="25" width="23" height="3"/>
    <rect class="outline" x="6" y="13" width="21" height="12"/>
    <rect class="metal" x="7" y="14" width="19" height="10"/>
    <rect class="coal" x="9" y="16" width="7" height="5"/>
    <rect class="warn" x="18" y="16" width="5" height="5"/>
    <rect class="metal2" x="8" y="11" width="9" height="2"/>
  </g>

  <g id="emp_emitter" transform="translate(192 96)">
    <rect class="shadow" x="7" y="26" width="19" height="3"/>
    <rect class="outline" x="10" y="17" width="13" height="8"/>
    <rect class="metal" x="11" y="18" width="11" height="6"/>
    <rect class="glow" x="15" y="8" width="3" height="10"/>
    <rect class="glow" x="11" y="11" width="11" height="2"/>
    <rect class="warn" x="14" y="20" width="5" height="2"/>
  </g>

  <g id="signal_jammer" transform="translate(224 96)">
    <rect class="shadow" x="7" y="26" width="19" height="3"/>
    <rect class="outline" x="14" y="8" width="4" height="18"/>
    <rect class="metal" x="15" y="9" width="2" height="16"/>
    <rect class="danger" x="9" y="14" width="14" height="2"/>
    <rect class="glow" x="6" y="8" width="3" height="2"/>
    <rect class="glow" x="23" y="8" width="3" height="2"/>
    <rect class="warn" x="12" y="22" width="8" height="3"/>
  </g>

  <g id="field_lamp" transform="translate(0 128)">
    <rect class="shadow" x="8" y="26" width="17" height="3"/>
    <rect class="outline" x="15" y="8" width="3" height="19"/>
    <rect class="metal" x="16" y="9" width="1" height="17"/>
    <rect class="warn" x="11" y="6" width="11" height="6"/>
    <rect class="glow" x="12" y="7" width="9" height="4"/>
    <rect class="warn" x="10" y="12" width="13" height="2" opacity=".45"/>
  </g>

  <g id="warning_sign" transform="translate(32 128)">
    <rect class="shadow" x="8" y="26" width="17" height="3"/>
    <rect class="outline" x="15" y="14" width="3" height="13"/>
    <polygon class="outline" points="16,4 5,21 27,21"/>
    <polygon class="warn" points="16,7 8,19 24,19"/>
    <rect class="danger" x="15" y="11" width="2" height="5"/>
    <rect class="danger" x="15" y="17" width="2" height="2"/>
  </g>
</svg>
