<svg xmlns="http://www.w3.org/2000/svg" width="256" height="160" viewBox="0 0 256 160" shape-rendering="crispEdges">
  <defs>
    <style>
      .outline{fill:#070807}
      .shadow{fill:#070807;opacity:.42}
      .woodDark{fill:#3a2416}
      .wood{fill:#76502c}
      .woodLight{fill:#b77b42}
      .leafDark{fill:#15351b}
      .leaf{fill:#2f6b35}
      .leafLight{fill:#7fb85d}
      .swampDark{fill:#142014}
      .swamp{fill:#36512d}
      .swampLight{fill:#7b9150}
      .sandDark{fill:#5f4224}
      .sand{fill:#b98745}
      .sandLight{fill:#e1c478}
      .snowDark{fill:#476579}
      .snow{fill:#d9edf2}
      .snowLight{fill:#f9ffff}
      .metalDark{fill:#202725}
      .metal{fill:#65706d}
      .metalLight{fill:#c7d0ca}
      .rustDark{fill:#3c2118}
      .rust{fill:#7a4329}
      .rustLight{fill:#b76b3b}
      .coal{fill:#171716}
      .warn{fill:#d3b238}
      .danger{fill:#be3b2d}
      .glow{fill:#7defff}
      .glowSoft{fill:#bdfbff}
    </style>
  </defs>

  <g id="tree_small" transform="translate(0 0)">
    <rect class="shadow" x="7" y="26" width="18" height="3"/>
    <rect class="outline" x="13" y="15" width="6" height="12"/>
    <rect class="wood" x="14" y="15" width="4" height="11"/>
    <rect class="woodLight" x="16" y="17" width="1" height="7"/>
    <rect class="outline" x="8" y="8" width="17" height="13"/>
    <rect class="leafDark" x="7" y="10" width="19" height="9"/>
    <rect class="leaf" x="10" y="6" width="13" height="10"/>
    <rect class="leafLight" x="12" y="7" width="6" height="2"/>
    <rect class="leafLight" x="8" y="14" width="4" height="2"/>
  </g>

  <g id="tree_large" transform="translate(32 0)">
    <rect class="shadow" x="4" y="26" width="24" height="3"/>
    <rect class="outline" x="13" y="13" width="7" height="15"/>
    <rect class="wood" x="14" y="14" width="5" height="13"/>
    <rect class="woodLight" x="16" y="16" width="2" height="9"/>
    <rect class="outline" x="4" y="7" width="25" height="15"/>
    <rect class="leafDark" x="5" y="8" width="23" height="13"/>
    <rect class="leaf" x="8" y="4" width="18" height="12"/>
    <rect class="leaf" x="2" y="12" width="13" height="9"/>
    <rect class="leafLight" x="11" y="5" width="9" height="2"/>
    <rect class="leafLight" x="21" y="11" width="4" height="2"/>
  </g>

  <g id="pine" transform="translate(64 0)">
    <rect class="shadow" x="7" y="27" width="18" height="2"/>
    <rect class="woodDark" x="14" y="21" width="4" height="7"/>
    <polygon class="outline" points="16,2 8,13 11,13 5,21 10,21 4,27 28,27 22,21 27,21 21,13 24,13"/>
    <polygon class="swampDark" points="16,4 10,13 13,13 8,20 12,20 7,25 25,25 20,20 24,20 19,13 22,13"/>
    <rect class="swamp" x="12" y="11" width="9" height="3"/>
    <rect class="swamp" x="10" y="18" width="13" height="3"/>
    <rect class="snowLight" x="14" y="6" width="5" height="2"/>
    <rect class="snow" x="11" y="14" width="10" height="2"/>
    <rect class="snow" x="9" y="22" width="13" height="2"/>
  </g>

  <g id="palm" transform="translate(96 0)">
    <rect class="shadow" x="6" y="27" width="20" height="2"/>
    <polygon class="outline" points="12,28 17,28 21,8 16,8"/>
    <polygon class="wood" points="13,27 16,27 20,9 17,9"/>
    <rect class="woodLight" x="16" y="12" width="3" height="2"/>
    <rect class="woodLight" x="15" y="18" width="3" height="2"/>
    <polygon class="outline" points="18,4 4,2 13,8 2,11 14,12 6,19 17,13 25,22 22,13 31,8 21,7 29,1"/>
    <polygon class="leafDark" points="18,5 7,4 15,8 5,11 15,11 9,17 18,12 24,19 21,12 29,8 21,7 27,3"/>
    <polygon class="leafLight" points="17,6 12,5 16,8 11,9 17,10 14,13 19,10 23,13 20,9 24,7 20,7 23,5"/>
    <rect class="sandLight" x="7" y="25" width="5" height="1"/>
  </g>

  <g id="stump" transform="translate(128 0)">
    <rect class="shadow" x="7" y="26" width="18" height="3"/>
    <polygon class="outline" points="10,13 12,11 21,11 24,14 23,24 20,26 11,26 8,23 9,16"/>
    <polygon class="woodDark" points="11,15 13,13 21,13 22,15 21,24 19,25 12,25 10,23 10,17"/>
    <polygon class="wood" points="13,15 15,14 20,15 20,22 18,24 13,23 12,21 12,17"/>
    <polygon class="woodLight" points="12,11 15,9 21,10 24,13 22,17 14,17 10,15"/>
    <rect class="outline" x="14" y="12" width="6" height="2"/>
    <rect class="woodDark" x="16" y="13" width="2" height="1"/>
    <rect class="woodLight" x="13" y="20" width="2" height="4"/>
    <rect class="woodDark" x="19" y="19" width="2" height="5"/>
    <rect class="woodDark" x="7" y="23" width="5" height="2"/>
    <rect class="woodDark" x="21" y="24" width="5" height="2"/>
  </g>

  <g id="fallen_log_horizontal" transform="translate(160 0)">
    <rect class="shadow" x="3" y="23" width="26" height="3"/>
    <rect class="outline" x="3" y="12" width="26" height="11"/>
    <rect class="woodDark" x="4" y="13" width="24" height="9"/>
    <rect class="wood" x="7" y="14" width="19" height="7"/>
    <rect class="woodLight" x="8" y="15" width="15" height="2"/>
    <rect class="woodLight" x="10" y="20" width="12" height="1"/>
    <rect class="outline" x="5" y="13" width="5" height="9"/>
    <rect class="woodLight" x="6" y="15" width="3" height="5"/>
    <rect class="woodDark" x="7" y="16" width="1" height="3"/>
  </g>

  <g id="fallen_log_vertical" transform="translate(192 0)">
    <rect class="shadow" x="10" y="27" width="13" height="2"/>
    <rect class="outline" x="11" y="3" width="10" height="25"/>
    <rect class="woodDark" x="12" y="4" width="8" height="23"/>
    <rect class="wood" x="14" y="7" width="5" height="18"/>
    <rect class="woodLight" x="15" y="8" width="2" height="14"/>
    <rect class="woodLight" x="18" y="11" width="1" height="12"/>
    <rect class="outline" x="12" y="5" width="8" height="5"/>
    <rect class="woodLight" x="14" y="6" width="4" height="2"/>
  </g>

  <g id="rock_small" transform="translate(224 0)">
    <rect class="shadow" x="8" y="24" width="17" height="3"/>
    <polygon class="outline" points="7,23 10,15 16,11 24,16 26,23"/>
    <polygon class="sandDark" points="9,22 11,16 16,13 23,17 24,22"/>
    <polygon class="metal" points="12,16 17,13 22,17 19,22 10,22"/>
    <rect class="sandLight" x="13" y="15" width="5" height="2"/>
    <rect class="metalLight" x="18" y="18" width="3" height="1"/>
  </g>

  <g id="rock_large" transform="translate(0 32)">
    <rect class="shadow" x="3" y="25" width="26" height="3"/>
    <polygon class="outline" points="4,24 6,15 13,8 22,10 29,18 29,25"/>
    <polygon class="sandDark" points="6,23 8,16 14,10 21,12 27,18 27,24"/>
    <polygon class="metal" points="8,22 13,12 21,13 26,19 23,24"/>
    <rect class="sandLight" x="10" y="14" width="8" height="2"/>
    <rect class="metalLight" x="20" y="17" width="4" height="2"/>
    <rect class="rustLight" x="7" y="22" width="5" height="1"/>
  </g>

  <g id="reeds_cluster" transform="translate(32 32)">
    <rect class="shadow" x="4" y="27" width="24" height="2"/>
    <rect class="swampDark" x="5" y="24" width="23" height="4"/>
    <rect class="swamp" x="6" y="13" width="2" height="13"/>
    <rect class="swamp" x="10" y="7" width="2" height="19"/>
    <rect class="swampLight" x="14" y="10" width="2" height="16"/>
    <rect class="swamp" x="20" y="6" width="2" height="20"/>
    <rect class="swampLight" x="25" y="12" width="2" height="14"/>
    <rect class="sandDark" x="9" y="6" width="4" height="2"/>
    <rect class="sandDark" x="19" y="5" width="4" height="2"/>
    <rect class="glow" x="6" y="25" width="18" height="1" opacity=".35"/>
  </g>

  <g id="bush" transform="translate(64 32)">
    <rect class="shadow" x="5" y="26" width="23" height="2"/>
    <polygon class="outline" points="6,24 6,17 9,17 9,13 13,13 13,10 20,10 20,12 25,12 25,15 28,15 28,23 25,25 9,25"/>
    <polygon class="leafDark" points="8,23 8,18 11,18 11,14 14,14 14,12 20,12 20,14 24,14 24,16 26,16 26,22 24,23"/>
    <rect class="leaf" x="9" y="17" width="17" height="6"/>
    <rect class="leaf" x="12" y="13" width="11" height="6"/>
    <rect class="leafLight" x="13" y="11" width="7" height="3"/>
    <rect class="leafLight" x="21" y="15" width="4" height="3"/>
    <rect class="leafLight" x="9" y="19" width="4" height="2"/>
    <rect class="outline" x="11" y="23" width="12" height="2"/>
  </g>

  <g id="dry_bush" transform="translate(96 32)">
    <rect class="shadow" x="6" y="26" width="21" height="2"/>
    <rect class="sandDark" x="8" y="19" width="18" height="5"/>
    <rect class="sand" x="9" y="17" width="15" height="5"/>
    <rect class="woodDark" x="12" y="12" width="2" height="12"/>
    <rect class="woodDark" x="18" y="10" width="2" height="14"/>
    <rect class="wood" x="7" y="15" width="2" height="9"/>
    <rect class="wood" x="24" y="16" width="2" height="8"/>
    <rect class="sandLight" x="10" y="18" width="5" height="1"/>
    <rect class="sandLight" x="20" y="14" width="4" height="1"/>
  </g>

  <g id="snow_bush" transform="translate(128 32)">
    <rect class="shadow" x="6" y="26" width="21" height="2"/>
    <rect class="snowDark" x="7" y="16" width="20" height="8"/>
    <rect class="swampDark" x="9" y="20" width="17" height="5"/>
    <rect class="snow" x="8" y="13" width="17" height="8"/>
    <rect class="snowLight" x="13" y="10" width="10" height="5"/>
    <rect class="snowLight" x="9" y="16" width="7" height="3"/>
    <rect class="swamp" x="14" y="22" width="7" height="2"/>
  </g>

  <g id="crate_wood" transform="translate(160 32)">
    <rect class="shadow" x="5" y="25" width="22" height="3"/>
    <rect class="outline" x="5" y="8" width="22" height="17"/>
    <rect class="woodDark" x="6" y="9" width="20" height="15"/>
    <rect class="wood" x="8" y="10" width="16" height="13"/>
    <rect class="woodLight" x="8" y="12" width="16" height="2"/>
    <rect class="woodLight" x="8" y="20" width="16" height="2"/>
    <rect class="outline" x="14" y="9" width="3" height="15"/>
    <polygon class="outline" points="8,10 11,10 25,22 25,24 22,24 8,12"/>
    <polygon class="outline" points="24,10 21,10 7,22 7,24 10,24 24,12"/>
  </g>

  <g id="crate_metal" transform="translate(192 32)">
    <rect class="shadow" x="5" y="25" width="22" height="3"/>
    <rect class="outline" x="5" y="8" width="22" height="17"/>
    <rect class="metalDark" x="6" y="9" width="20" height="15"/>
    <rect class="metal" x="8" y="10" width="16" height="13"/>
    <rect class="metalLight" x="9" y="12" width="14" height="2"/>
    <rect class="warn" x="8" y="18" width="16" height="3"/>
    <rect class="outline" x="13" y="18" width="3" height="3"/>
    <rect class="outline" x="21" y="18" width="3" height="3"/>
    <rect class="outline" x="15" y="10" width="2" height="14"/>
  </g>

  <g id="fuel_barrel" transform="translate(224 32)">
    <rect class="shadow" x="8" y="26" width="16" height="2"/>
    <rect class="outline" x="9" y="7" width="15" height="19"/>
    <rect class="danger" x="10" y="9" width="13" height="16"/>
    <rect class="rustDark" x="10" y="7" width="13" height="3"/>
    <rect class="rustDark" x="10" y="23" width="13" height="3"/>
    <rect class="warn" x="11" y="12" width="11" height="2"/>
    <rect class="warn" x="11" y="20" width="11" height="2"/>
    <rect class="metalLight" x="18" y="10" width="2" height="13"/>
    <rect class="outline" x="14" y="15" width="4" height="3"/>
  </g>

  <g id="sandbags" transform="translate(0 64)">
    <rect class="shadow" x="4" y="26" width="24" height="2"/>
    <rect class="outline" x="4" y="19" width="10" height="6"/>
    <rect class="outline" x="14" y="19" width="10" height="6"/>
    <rect class="outline" x="9" y="13" width="10" height="7"/>
    <rect class="outline" x="18" y="14" width="8" height="6"/>
    <rect class="sandDark" x="5" y="20" width="8" height="4"/>
    <rect class="sandDark" x="15" y="20" width="8" height="4"/>
    <rect class="sand" x="10" y="14" width="8" height="5"/>
    <rect class="sand" x="19" y="15" width="6" height="4"/>
    <rect class="sandLight" x="7" y="20" width="4" height="1"/>
    <rect class="sandLight" x="12" y="15" width="4" height="1"/>
  </g>

  <g id="barbed_wire" transform="translate(32 64)">
    <rect class="shadow" x="4" y="24" width="24" height="3"/>
    <rect class="outline" x="5" y="12" width="2" height="13"/>
    <rect class="outline" x="25" y="12" width="2" height="13"/>
    <rect class="metal" x="6" y="15" width="20" height="2"/>
    <rect class="metalLight" x="6" y="20" width="20" height="2"/>
    <polygon class="outline" points="9,12 12,15 9,18 6,15"/>
    <polygon class="outline" points="16,17 19,20 16,23 13,20"/>
    <polygon class="outline" points="24,12 27,15 24,18 21,15"/>
    <rect class="danger" x="15" y="13" width="2" height="2"/>
    <rect class="danger" x="22" y="20" width="2" height="2"/>
  </g>

  <g id="tank_wreck" transform="translate(64 64)">
    <rect class="shadow" x="3" y="26" width="25" height="2"/>
    <rect class="outline" x="3" y="17" width="25" height="9"/>
    <rect class="coal" x="4" y="18" width="23" height="7"/>
    <rect class="rustDark" x="6" y="16" width="19" height="6"/>
    <rect class="rust" x="8" y="13" width="11" height="6"/>
    <rect class="outline" x="16" y="11" width="12" height="3"/>
    <rect class="rustLight" x="18" y="12" width="8" height="1"/>
    <rect class="metalDark" x="6" y="23" width="18" height="2"/>
    <rect class="warn" x="7" y="20" width="4" height="1"/>
    <rect class="danger" x="22" y="18" width="2" height="2"/>
  </g>

  <g id="broken_turret" transform="translate(96 64)">
    <rect class="shadow" x="7" y="26" width="18" height="2"/>
    <rect class="outline" x="9" y="16" width="13" height="9"/>
    <rect class="rustDark" x="10" y="17" width="11" height="7"/>
    <rect class="rust" x="12" y="15" width="8" height="5"/>
    <rect class="outline" x="17" y="12" width="10" height="3"/>
    <rect class="coal" x="24" y="10" width="4" height="3"/>
    <rect class="metal" x="14" y="16" width="5" height="2"/>
    <rect class="danger" x="11" y="22" width="2" height="2"/>
  </g>

  <g id="crater_small" transform="translate(128 64)">
    <rect class="shadow" x="8" y="25" width="16" height="2"/>
    <ellipse class="outline" cx="16" cy="19" rx="10" ry="7"/>
    <ellipse class="rustDark" cx="16" cy="19" rx="8" ry="5"/>
    <ellipse class="coal" cx="16" cy="19" rx="5" ry="3"/>
    <rect class="rustLight" x="10" y="15" width="5" height="2"/>
    <rect class="sandDark" x="20" y="22" width="3" height="1"/>
  </g>

  <g id="crater_large" transform="translate(160 64)">
    <rect class="shadow" x="3" y="26" width="26" height="2"/>
    <ellipse class="outline" cx="16" cy="18" rx="14" ry="9"/>
    <ellipse class="rustDark" cx="16" cy="18" rx="12" ry="7"/>
    <ellipse class="coal" cx="16" cy="18" rx="8" ry="4"/>
    <rect class="rustLight" x="7" y="14" width="6" height="2"/>
    <rect class="sandDark" x="22" y="21" width="4" height="2"/>
    <rect class="metalDark" x="13" y="24" width="6" height="1"/>
  </g>

  <g id="rubble_pile" transform="translate(192 64)">
    <rect class="shadow" x="4" y="26" width="24" height="2"/>
    <polygon class="outline" points="4,25 9,16 14,21 20,12 28,25"/>
    <polygon class="metalDark" points="6,24 10,18 15,23 20,14 26,24"/>
    <rect class="metal" x="8" y="21" width="7" height="3"/>
    <rect class="rust" x="13" y="19" width="5" height="4"/>
    <rect class="metalLight" x="20" y="17" width="4" height="2"/>
    <rect class="outline" x="23" y="12" width="2" height="10"/>
  </g>

  <g id="roadblock" transform="translate(224 64)">
    <rect class="shadow" x="4" y="26" width="24" height="2"/>
    <rect class="outline" x="4" y="14" width="24" height="7"/>
    <rect class="warn" x="5" y="15" width="22" height="5"/>
    <rect class="danger" x="7" y="15" width="4" height="5"/>
    <rect class="danger" x="17" y="15" width="4" height="5"/>
    <rect class="metalDark" x="8" y="21" width="4" height="6"/>
    <rect class="metalDark" x="21" y="21" width="4" height="6"/>
    <rect class="metalLight" x="6" y="13" width="20" height="1"/>
  </g>

  <g id="czech_hedgehog" transform="translate(0 96)">
    <rect class="shadow" x="5" y="26" width="23" height="2"/>
    <polygon class="outline" points="7,8 12,8 25,23 20,23"/>
    <polygon class="outline" points="25,8 20,8 7,23 12,23"/>
    <rect class="outline" x="14" y="7" width="4" height="19"/>
    <polygon class="metalLight" points="9,10 11,10 23,22 21,22"/>
    <polygon class="metal" points="23,10 21,10 9,22 11,22"/>
    <rect class="metalLight" x="10" y="15" width="13" height="3"/>
    <rect class="danger" x="15" y="15" width="2" height="3"/>
  </g>

  <g id="relay_tower" transform="translate(32 96)">
    <rect class="shadow" x="6" y="28" width="21" height="1"/>
    <rect class="outline" x="15" y="3" width="3" height="25"/>
    <polygon class="outline" points="16,4 7,28 25,28"/>
    <polygon class="metalDark" points="16,6 9,27 23,27"/>
    <rect class="metalLight" x="15" y="6" width="3" height="20"/>
    <rect class="glow" x="12" y="7" width="9" height="2"/>
    <rect class="glow" x="10" y="13" width="13" height="2"/>
    <rect class="outline" x="11" y="20" width="10" height="2"/>
    <rect class="warn" x="13" y="24" width="7" height="2"/>
  </g>

  <g id="portable_relay" transform="translate(64 96)">
    <rect class="shadow" x="7" y="27" width="18" height="2"/>
    <rect class="outline" x="10" y="18" width="12" height="7"/>
    <rect class="metal" x="12" y="19" width="8" height="5"/>
    <rect class="glow" x="14" y="16" width="5" height="3"/>
    <rect class="outline" x="15" y="4" width="2" height="14"/>
    <rect class="metalLight" x="16" y="5" width="1" height="12"/>
    <rect class="outline" x="10" y="7" width="12" height="2"/>
    <rect class="glow" x="11" y="8" width="10" height="1"/>
    <rect class="outline" x="13" y="11" width="7" height="2"/>
    <rect class="glowSoft" x="14" y="12" width="5" height="1"/>
    <rect class="metalLight" x="8" y="24" width="3" height="4"/>
    <rect class="metalLight" x="21" y="24" width="3" height="4"/>
    <rect class="warn" x="14" y="21" width="4" height="1"/>
  </g>

  <g id="broken_relay" transform="translate(96 96)">
    <rect class="shadow" x="5" y="27" width="23" height="2"/>
    <polygon class="outline" points="9,10 13,8 25,24 21,27"/>
    <polygon class="metalDark" points="11,12 13,11 23,24 21,25"/>
    <rect class="outline" x="7" y="9" width="9" height="2"/>
    <rect class="metal" x="8" y="10" width="7" height="1"/>
    <rect class="outline" x="18" y="14" width="6" height="3"/>
    <rect class="danger" x="19" y="15" width="4" height="1"/>
    <rect class="rustDark" x="9" y="20" width="14" height="6"/>
    <rect class="rust" x="12" y="21" width="10" height="4"/>
    <rect class="glow" x="7" y="22" width="4" height="1"/>
    <rect class="metal" x="7" y="25" width="6" height="2"/>
    <rect class="coal" x="15" y="18" width="3" height="2"/>
  </g>

  <g id="antenna_mast" transform="translate(128 96)">
    <rect class="shadow" x="8" y="28" width="17" height="1"/>
    <rect class="outline" x="15" y="3" width="3" height="25"/>
    <rect class="metalLight" x="16" y="4" width="1" height="22"/>
    <rect class="glow" x="10" y="8" width="12" height="1"/>
    <rect class="glow" x="7" y="13" width="18" height="1"/>
    <rect class="glow" x="11" y="18" width="10" height="1"/>
    <rect class="outline" x="10" y="25" width="12" height="2"/>
    <rect class="metal" x="12" y="21" width="8" height="2"/>
  </g>

  <g id="generator" transform="translate(160 96)">
    <rect class="shadow" x="4" y="26" width="24" height="2"/>
    <rect class="outline" x="5" y="12" width="23" height="14"/>
    <rect class="metalDark" x="6" y="13" width="21" height="12"/>
    <rect class="metal" x="8" y="14" width="17" height="10"/>
    <rect class="coal" x="9" y="16" width="7" height="6"/>
    <rect class="warn" x="18" y="16" width="6" height="5"/>
    <rect class="outline" x="19" y="17" width="1" height="3"/>
    <rect class="metalLight" x="8" y="10" width="10" height="2"/>
    <rect class="glow" x="11" y="17" width="3" height="1"/>
  </g>

  <g id="emp_emitter" transform="translate(192 96)">
    <rect class="shadow" x="7" y="27" width="19" height="2"/>
    <rect class="outline" x="9" y="17" width="15" height="9"/>
    <rect class="metalDark" x="10" y="18" width="13" height="7"/>
    <rect class="metal" x="12" y="19" width="9" height="5"/>
    <rect class="glow" x="15" y="7" width="3" height="11"/>
    <rect class="glow" x="10" y="10" width="13" height="2"/>
    <rect class="glowSoft" x="12" y="14" width="9" height="1"/>
    <rect class="warn" x="14" y="21" width="6" height="2"/>
    <rect class="danger" x="11" y="20" width="2" height="3"/>
  </g>

  <g id="signal_jammer" transform="translate(224 96)">
    <rect class="shadow" x="7" y="27" width="19" height="2"/>
    <rect class="outline" x="13" y="8" width="5" height="18"/>
    <rect class="metal" x="15" y="9" width="2" height="16"/>
    <rect class="danger" x="8" y="14" width="16" height="2"/>
    <rect class="danger" x="10" y="18" width="12" height="2"/>
    <rect class="glow" x="5" y="8" width="4" height="2"/>
    <rect class="glow" x="23" y="8" width="4" height="2"/>
    <rect class="warn" x="11" y="22" width="10" height="3"/>
    <rect class="outline" x="6" y="5" width="3" height="3"/>
    <rect class="outline" x="24" y="5" width="3" height="3"/>
  </g>

  <g id="field_lamp" transform="translate(0 128)">
    <rect class="shadow" x="8" y="27" width="17" height="2"/>
    <rect class="outline" x="15" y="9" width="3" height="18"/>
    <rect class="metal" x="16" y="10" width="1" height="16"/>
    <rect class="outline" x="10" y="5" width="13" height="8"/>
    <rect class="warn" x="11" y="6" width="11" height="6" opacity=".62"/>
    <rect class="metalLight" x="12" y="7" width="9" height="4" opacity=".45"/>
    <rect class="warn" x="9" y="13" width="15" height="2" opacity=".16"/>
    <rect class="metalDark" x="13" y="26" width="7" height="2"/>
  </g>

  <g id="warning_sign" transform="translate(32 128)">
    <rect class="shadow" x="8" y="27" width="17" height="2"/>
    <rect class="outline" x="15" y="14" width="3" height="13"/>
    <polygon class="outline" points="16,3 4,22 28,22"/>
    <polygon class="warn" points="16,6 8,20 24,20"/>
    <rect class="danger" x="15" y="11" width="2" height="5"/>
    <rect class="danger" x="15" y="17" width="2" height="2"/>
    <rect class="rustDark" x="11" y="21" width="10" height="2"/>
  </g>
</svg>
