<svg xmlns="http://www.w3.org/2000/svg" width="128" height="120" viewBox="0 0 128 120" shape-rendering="crispEdges">
  <defs>
    <g id="static-relay-body">
      <g data-layer="tower-silhouette" fill="#111716">
        <rect x="29" y="0" width="6" height="12"/>
        <rect x="20" y="8" width="24" height="16"/>
        <polygon points="20,18 30,18 20,106 6,106"/>
        <polygon points="34,18 44,18 58,106 44,106"/>
        <rect x="10" y="38" width="44" height="10"/>
        <rect x="6" y="68" width="52" height="10"/>
        <rect x="4" y="102" width="56" height="18"/>
      </g>

      <g data-layer="red-white-structure">
        <rect x="31" y="2" width="2" height="8" fill="#F4EEE0"/>
        <rect x="22" y="10" width="20" height="12" fill="#C83A32"/>
        <rect x="28" y="10" width="8" height="8" fill="#F4EEE0"/>

        <polygon points="23,20 28,20 18,104 10,104" fill="#C83A32"/>
        <polygon points="36,20 41,20 54,104 46,104" fill="#C83A32"/>
        <polygon points="18,50 25,50 23,66 16,66" fill="#F4EEE0"/>
        <polygon points="39,50 46,50 48,66 41,66" fill="#F4EEE0"/>
        <polygon points="14,82 21,82 19,98 11,98" fill="#F4EEE0"/>
        <polygon points="43,82 50,82 53,98 45,98" fill="#F4EEE0"/>

        <path d="M24 24 L40 40 M40 24 L24 40" stroke="#F4EEE0" stroke-width="4" fill="none"/>
        <path d="M18 48 L44 68 M46 48 L20 68" stroke="#F4EEE0" stroke-width="4" fill="none"/>
        <path d="M14 78 L48 102 M50 78 L16 102" stroke="#C83A32" stroke-width="4" fill="none"/>

        <rect x="12" y="40" width="40" height="6" fill="#C83A32"/>
        <rect x="18" y="42" width="28" height="2" fill="#F4EEE0"/>
        <rect x="8" y="70" width="48" height="6" fill="#F4EEE0"/>
        <rect x="16" y="72" width="32" height="2" fill="#C83A32"/>
      </g>

      <g data-layer="single-dish">
        <ellipse cx="45" cy="30" rx="15" ry="12" fill="#111716"/>
        <ellipse cx="44" cy="29" rx="12" ry="9" fill="#F4EEE0"/>
        <path d="M32 29 A12 9 0 0 0 55 33 L55 38 L32 38 Z" fill="#B8BEB8"/>
        <rect x="42" y="28" width="6" height="4" fill="#111716"/>
        <path d="M46 30 L60 23" stroke="#111716" stroke-width="4" fill="none"/>
        <path d="M46 30 L59 24" stroke="#F4EEE0" stroke-width="2" fill="none"/>
        <rect x="58" y="20" width="4" height="6" fill="#C83A32"/>
      </g>

      <g data-layer="ownership-plaque">
        <rect x="18" y="86" width="28" height="10" fill="#111716"/>
      </g>

      <g data-layer="foundation">
        <rect x="8" y="104" width="48" height="12" fill="#C83A32"/>
        <rect x="14" y="106" width="36" height="6" fill="#F4EEE0"/>
        <rect x="4" y="116" width="56" height="4" fill="#111716"/>
      </g>
    </g>
  </defs>

  <g id="static-relay.0">
    <use href="#static-relay-body"/>
    <rect x="43" y="29" width="4" height="2" fill="#C83A32"/>
  </g>
  <g id="static-relay.1" transform="translate(64 0)">
    <use href="#static-relay-body"/>
    <rect x="43" y="29" width="4" height="2" fill="#F4EEE0"/>
  </g>
</svg>
